<svg version="1.1"
     width="280" height="1000"
     xmlns="http://www.w3.org/2000/svg">
<g id="map-guy">
  <path d="M100,20 q0,20 -20,20 l-50,0 q-20,0 -20,20 l0,120 q0,20 20,20 l50,0 q20,0 20,20 l50,0 q0,-20 20,-20 l50,0 q20,0 20,-20 l0,-120 q0,-20 -20,-20 l-50,0 q-20,0 -20,-20" fill="#CCC" stroke-width="3" stroke="#333"/>

  <path d="M110,0 l30,0 l0,10 l-30,0 z" fill="yellow" stroke-width="3" stroke="#963">
    <animate attributeType="XML" attributeName="d" id="yellow_map"
        from="M110,0 l30,0 l0,10 l-30,0 z" to="M110,88 l30,0 l0,10 l-30,0 z" begin="0;yellow_map_3.end+2000ms" dur="400ms" fill="freeze"/>
    <animate attributeType="XML" attributeName="d" id="yellow_map_2"
        from="M110,88 l30,0 l0,10 l-30,0 z" to="M118,110 l15,0 l0,20 l-15,0 z" begin="yellow_map.end" dur="100ms" fill="freeze"/>
    <animate attributeType="XML" attributeName="d" id="yellow_map_3"
        from="M118,110 l15,0 l0,20 l-15,0 z" to="M118,220 l15,0 l0,20 l-15,0 z" begin="yellow_map_2.end" dur="500ms" fill="freeze"/>
  </path>

  <path d="M110,0 l30,0 l0,10 l-30,0 z" fill="green" stroke-width="3" stroke="#963">
    <animate attributeType="XML" attributeName="d" id="green_map"
        from="M110,0 l30,0 l0,10 l-30,0 z" to="M110,88 l30,0 l0,10 l-30,0 z" begin="1000ms;green_map_3.end+2000ms" dur="400ms" fill="freeze"/>
    <animate attributeType="XML" attributeName="d" id="green_map_2"
        from="M110,88 l30,0 l0,10 l-30,0 z" to="M118,110 l15,0 l0,20 l-15,0 z" begin="green_map.end" dur="100ms" fill="freeze"/>
    <animate attributeType="XML" attributeName="d" id="green_map_3"
        from="M118,110 l15,0 l0,20 l-15,0 z" to="M118,220 l15,0 l0,20 l-15,0 z" begin="green_map_2.end" dur="500ms" fill="freeze"/>
  </path>

  <path d="M110,0 l30,0 l0,10 l-30,0 z" fill="blue" stroke-width="3" stroke="#963">
    <animate attributeType="XML" attributeName="d" id="blue_map"
        from="M110,0 l30,0 l0,10 l-30,0 z" to="M110,88 l30,0 l0,10 l-30,0 z" begin="2000ms;blue_map_3.end+2000ms" dur="400ms" fill="freeze"/>
    <animate attributeType="XML" attributeName="d" id="blue_map_2"
        from="M110,88 l30,0 l0,10 l-30,0 z" to="M118,110 l15,0 l0,20 l-15,0 z" begin="blue_map.end" dur="100ms" fill="freeze"/>
    <animate attributeType="XML" attributeName="d" id="blue_map_3"
        from="M118,110 l15,0 l0,20 l-15,0 z" to="M118,220 l15,0 l0,20 l-15,0 z" begin="blue_map_2.end" dur="500ms" fill="freeze"/>
  </path>

  <path d="M95,0 l60,0 l0,20 l-60,0 z" fill="#CCC" stroke-width="3" stroke="#333"/>
  <path d="M95,220 l60,0 l0,20 l-60,0 z" fill="#CCC" stroke-width="3" stroke="#333">
  </path>

  <path d="M10,100 l40,0 l0,-20 l20,0 l0,80 l-20,0 l0,-20 l-40,0" fill="blue" stroke="yellow" stroke-width="3">
    <animate attributeType="XML" attributeName="d" id="left_close"
        from="M10,100 l40,0 l0,-20 l20,0 l0,80 l-20,0 l0,-20 l-40,0" 
          to="M10,100 l88,0 l0,-20 l20,0 l0,80 l-20,0 l0,-20 l-88,0" begin="300ms;left_open.end+300ms" dur="200ms" fill="freeze"/>
    <animate attributeType="XML" attributeName="d" id="left_open"
        from="M10,100 l88,0 l0,-20 l20,0 l0,80 l-20,0 l0,-20 l-88,0"
          to="M10,100 l40,0 l0,-20 l20,0 l0,80 l-20,0 l0,-20 l-40,0" begin="left_close.end" dur="500ms" fill="freeze"/>
  </path>
  <path d="M240,100 l-40,0 l0,-20 l-20,0 l0,80 l20,0 l0,-20 l40,0" fill="blue" stroke="yellow" stroke-width="3">
    <animate attributeType="XML" attributeName="d" id="right_close"
        from="M240,100 l-40,0 l0,-20 l-20,0 l0,80 l20,0 l0,-20 l40,0"
          to="M240,100 l-88,0 l0,-20 l-20,0 l0,80 l20,0 l0,-20 l88,0" begin="300ms;left_open.end+300ms" dur="200ms" fill="freeze"/>
    <animate attributeType="XML" attributeName="d" id="right_open"
        from="M240,100 l-88,0 l0,-20 l-20,0 l0,80 l20,0 l0,-20 l88,0"
          to="M240,100 l-40,0 l0,-20 l-20,0 l0,80 l20,0 l0,-20 l40,0" begin="left_close.end" dur="500ms" fill="freeze"/>
  </path>
</g>
<g id="filter-guy" transform="translate(0,220)">
  <path d="M100,20 q0,20 -20,20 q-20,0 -20,20 l0,120 q0,20 20,20 q20,0 20,20 l50,0 q0,-20 20,-20 l80,0 q20,0 20,-20 l0,-120 q0,-20 -20,-20 l-80,0 q-20,0 -20,-20" fill="#CCC" stroke-width="3" stroke="#333"/>

  <path d="M118,0 l15,0 l0,20 l-15,0 z" fill="yellow" stroke-width="3" stroke="#963">
    <animate attributeType="XML" attributeName="d" id="packman_yellow"
        from="M118,0 l15,0 l0,20 l-15,0 z" to="M118,120 l15,0 l0,20 l-15,0 z" begin="yellow_map_3.end" dur="500ms" fill="remove"/>
  </path>
  <path d="M118,0 l15,0 l0,20 l-15,0 z" fill="green" stroke-width="3" stroke="#963">
    <animate attributeType="XML" attributeName="d" id="packman_green"
        from="M118,0 l15,0 l0,20 l-15,0 z" to="M118,220 l15,0 l0,20 l-15,0 z" begin="green_map_3.end" dur="1000ms" fill="freeze"/>
  </path>
  <path d="M118,0 l15,0 l0,20 l-15,0 z" fill="blue" stroke-width="3" stroke="#963">
    <animate attributeType="XML" attributeName="d" id="packman_blue"
        from="M118,0 l15,0 l0,20 l-15,0 z" to="M118,220 l15,0 l0,20 l-15,0 z" begin="blue_map_3.end" dur="1000ms" fill="freeze"/>
  </path>

  <path d="M95,0 l60,0 l0,20 l-60,0 z" fill="#CCC" stroke-width="3" stroke="#333"/>
  <path d="M95,220 l60,0 l0,20 l-60,0 z" fill="#CCC" stroke-width="3" stroke="#333"/>

  <path d="M200,120 l-54,-1 a56,56 0 1,1 0,2 z"
        fill="red" stroke="blue" stroke-width="3" >
    <animate id="packman_body_close" attributeType="XML" attributeName="d"
       from="M200,120 l-40,-40 a56,56 0 1,1 0,80 z"
         to="M150,120 l-54,-1 a56,56 0 1,1 0,2 z"
      begin="packman_body_open.end+100ms" dur="100ms" fill="freeze"
        />
    <animate id="packman_body_retreat" attributeType="XML" attributeName="d"
       from="M150,120 l-54,-1 a56,56 0 1,1 0,2 z"
         to="M200,120 l-54,-1 a56,56 0 1,1 0,2 z"
      begin="packman_body_close.end+200ms" dur="300ms" fill="freeze"
        />
    <animate id="packman_body_open" attributeType="XML" attributeName="d"
       from="M200,120 l-54,-1 a56,56 0 1,1 0,2 z"
         to="M200,120 l-40,-40 a56,56 0 1,1 0,80 z"
      begin="packman_yellow.begin" dur="300ms" fill="freeze"
        />
  </path>
  <ellipse cx="200" cy="90" rx="5" ry="5" fill="yellow" stroke="blue" stroke-width="3">
    <animate id="packman_eye_close" attributeType="XML" attributeName="cx"
       from="200"
         to="150"
      begin="packman_body_open.end+100ms" dur="100ms" fill="freeze"
        />
    <animate id="packman_eye_retreat" attributeType="XML" attributeName="cx"
       from="150"
         to="200"
      begin="packman_body_close.end+200ms" dur="300ms" fill="freeze"
        />
  </ellipse>
</g>

<g id="display-guy" transform="translate(0,440)">
  <path d="M100,20 q0,20 -20,20 l-40,0 q-20,0 -20,20 l0,120 q0,20 20,20 l170,0 q20,0 20,-20 l0,-120 q0,-20 -20,-20 l-40,0 q-20,0 -20,-20" fill="#CCC" stroke-width="3" stroke="#333"/>

  <path d="M118,0 l15,0 l0,20 l-15,0 z" fill="green" stroke-width="3" stroke="#963">
    <animate attributeType="XML" attributeName="d" id="display_green"
        from="M118,0 l15,0 l0,20 l-15,0 z" to="M118,88 l15,0 l0,20 l-15,0 z" begin="packman_green.end" dur="400ms" fill="freeze"/>
  </path>
  <path d="M118,0 l15,0 l0,20 l-15,0 z" fill="blue" stroke-width="3" stroke="#963">
    <animate attributeType="XML" attributeName="d" id="display_blue"
        from="M118,0 l15,0 l0,20 l-15,0 z" to="M118,88 l15,0 l0,20 l-15,0 z" begin="packman_blue.end" dur="400ms" fill="freeze"/>
  </path>

  <path d="M115,140 l0,10 q0,5 -5,5 l-5,0 q-3,0 -3,3 l46,0 q0,-3 -3,-3 l-5,0 q-5,0 -5,-5 l0,-10" fill="#333" stroke-width="3" stroke="#111"/>

  <path d="M70,80 l0,60 q0,5 5,5 l100,0 q5,0 5,-5 l0,-60 q0,-5 -5,-5 l-100,0 q-5,0 -5,5" fill="#333" stroke-width="3" stroke="#111"/>
  <path d="M75,85 l0,50 q0,5 5,5 l90,0 q5,0 5,-5 l0,-50 q0,-5 -5,-5 l-90,0 q-5,0 -5,5" fill="#EEE" stroke-width="3" stroke="#666"/>

  <path d="M95,0 l60,0 l0,20 l-60,0 z" fill="#CCC" stroke-width="3" stroke="#333"/>

  <path d="M125,110 l0,0 l0,0 l0,0 z" fill="green" stroke-width="3" stroke="#963">
    <animate attributeType="XML" attributeName="d" id="display_green_2"
        from="M125,110 l0,0 l0,0 l0,0 z" to="M110,90 l30,0 l0,40 l-30,0 z" begin="display_green.end" dur="300ms"/>
    <animate attributeType="XML" attributeName="d" id="display_green_3"
        from="M110,90 l30,0 l0,40 l-30,0 z" to="M118,100 l15,0 l0,20 l-15,0 z" begin="display_green_2.end" dur="200ms"/>
    <animate attributeType="XML" attributeName="d"
        from="M118,100 l15,0 l0,20 l-15,0 z" to="M118,100 l15,0 l0,20 l-15,0 z" begin="display_green_3.end" dur="500ms" fill="remove"/>
  </path>

  <path d="M125,110 l0,0 l0,0 l0,0 z" fill="blue" stroke-width="3" stroke="#963">
    <animate attributeType="XML" attributeName="d" id="display_blue_2"
        from="M125,110 l0,0 l0,0 l0,0 z" to="M110,90 l30,0 l0,40 l-30,0 z" begin="display_blue.end" dur="300ms"/>
    <animate attributeType="XML" attributeName="d" id="display_blue_3"
        from="M110,90 l30,0 l0,40 l-30,0 z" to="M118,100 l15,0 l0,20 l-15,0 z" begin="display_blue_2.end" dur="200ms"/>
    <animate attributeType="XML" attributeName="d"
        from="M118,100 l15,0 l0,20 l-15,0 z" to="M118,100 l15,0 l0,20 l-15,0 z" begin="display_blue_3.end" dur="500ms" fill="remove"/>
  </path>
</g>

</svg>